<?xml version="1.0" encoding="utf-8"?>
<!-- Svg Vector Icons : http://www.onlinewebfonts.com/icon -->
<!DOCTYPE svg PUBLIC "-//W3C//DTD SVG 1.1//EN" "http://www.w3.org/Graphics/SVG/1.1/DTD/svg11.dtd">
<svg version="1.1" xmlns="http://www.w3.org/2000/svg" xmlns:xlink="http://www.w3.org/1999/xlink" x="0px" y="0px" viewBox="0 0 1000 1000" enable-background="new 0 0 1000 1000" xml:space="preserve">
<metadata> Svg Vector Icons : http://www.onlinewebfonts.com/icon </metadata>
<g><g><g><path d="M950,460H844.6C825.2,302.5,698.9,177.3,540,158.6V50c0-22.1-17.9-40-40-40c-22.1,0-40,17.9-40,40v108.2C299.8,175.8,172.1,301.5,152.6,460H50c-22.1,0-40,17.9-40,40c0,22.1,17.9,40,40,40h102.1C169.8,700.4,298.4,828.2,460,846v104c0,22.1,17.9,40,40,40c22.1,0,40-17.9,40-40V845.6C700.3,826.7,827.5,699.5,845.1,540H950c22.1,0,40-17.9,40-40C990,477.9,972.1,460,950,460z M540,764.7V632.7c0-22.1-17.9-40-40-40c-22.1,0-40,17.9-40,40v132.4C342.7,748.3,249.9,656.2,233,540h134.3c22.1,0,40-17.9,40-40c0-22.1-17.9-40-40-40H233.7C252.1,345.8,344.1,255.8,460,239.1v128.2c0,22.1,17.9,40,40,40c22.1,0,40-17.9,40-40V239.5C654.6,257.2,745.2,346.7,763.5,460H632.7c-22.1,0-40,17.9-40,40c0,22.1,17.9,40,40,40h131.5C747.5,655.3,656,746.8,540,764.7z"/></g></g><g></g><g></g><g></g><g></g><g></g><g></g><g></g><g></g><g></g><g></g><g></g><g></g><g></g><g></g><g></g></g>
</svg>